
******** The.Crew.2008.DVDRiP.x264.DTS.MULTISUB.mkv-Zen_Bud *********

Format                           : Matroska
File size                        : 1.86 GiB
Duration                         : 1h 57mn
Overall bit rate                 : 2 266 Kbps
Writing application              : HandBrake svn3603
Writing library                  : libmkv 0.6.4.1

Video

Format                           : AVC
Duration                         : 1h 57mn
Bit rate                         : 1 485 Kbps
Width                            : 720 pixels
Height                           : 554 pixels
Display aspect ratio             : 16:9
Stream size                      : 1.21 GiB (65%)
Writing library                  : x264 core 107

Audio

Format                           : DTS
Duration                         : 1h 57mn
Bit rate                         : 755 Kbps
Channel(s)                       : 6 channels
Channel positions                : Front: L C R, Side: L R, LFE
Sampling rate                    : 48.0 KHz
Bit depth                        : 16 bits
Stream size                      : 636 MiB (33%)
Language                         : English

Text #1

Language                         : Danish

Text #2
Language                         : Swedish

Text #3
Language                         : Norwegian

Text #4
Language                         : Finnish

Text #5
Language                         : Icelandic

Menu
00:00:00.000                     : Chapter 1
00:09:24.520                     : Chapter 2



As a major heist approaches and with betrayal all around him, 
a respected crime boss has to summon all his street nous and killer instinct 
as he fights for survival. 

